<svg width="52" height="52" viewBox="0 0 52 52" fill="none" xmlns="http://www.w3.org/2000/svg">
<g clip-path="url(#clip0_73_28)">
<g clip-path="url(#clip1_73_28)">
<path d="M37.9232 23.7708C38.8674 20.2678 36.6732 18.03 33.5132 16.3063L35.2246 11.6129L32.6785 10.5344L31.0117 15.1057C30.3406 14.8263 29.6507 14.5443 28.9688 14.2742L30.6491 9.67262L28.103 8.59417L26.3916 13.2876C25.8373 13.0661 25.2909 12.8562 24.7568 12.6266L24.7675 12.6173L21.2523 11.1246L20.1465 14.1799C20.1465 14.1799 22.0364 14.9382 21.9947 14.9648C23.0188 15.3969 23.1137 16.2091 22.9941 16.8335L21.0434 22.189C21.1159 22.2197 21.2058 22.2634 21.3132 22.3201L21.0407 22.2099L18.3047 29.7027C18.1252 30.0526 17.7251 30.555 17.0097 30.2484C17.0231 30.2929 15.1521 29.4624 15.1521 29.4624L13.4065 32.6583L16.7217 34.0716C17.3378 34.3333 17.935 34.5924 18.5323 34.8516L16.7939 39.6055L19.34 40.684L21.0528 35.98C21.748 36.2946 22.4177 36.5845 23.0794 36.8627L21.3694 41.5457L23.9155 42.6242L25.6431 37.8795C30.0221 39.4208 33.4666 39.4752 35.4781 35.1195C37.1022 31.6092 36.1736 29.3444 33.9835 27.6618C35.7721 27.4364 37.2336 26.3471 37.9232 23.7708ZM30.6571 32.4221C29.3621 35.9753 24.1004 33.2844 22.3704 32.547L24.6724 26.2561C26.3944 26.9818 32.0008 28.7152 30.6571 32.4221ZM32.7122 23.0382C31.5348 26.2761 27.1589 23.978 25.7174 23.3741L27.8005 17.6626C29.2406 18.277 33.9356 19.6675 32.7122 23.0382Z" fill="#3B82F6"/>
</g>
<path d="M17.0525 8.79674L12.4012 7.72336C11.5295 7.5222 10.6157 7.78428 9.98315 8.41685L8.41685 9.98315C7.78428 10.6157 7.5222 11.5295 7.72336 12.4012L8.79674 17.0525C9.03942 18.1041 8.60579 19.1961 7.70781 19.7948L3.15537 22.8298C2.43356 23.311 2 24.1211 2 24.9886V27.0114C2 27.8789 2.43356 28.689 3.15537 29.1702L7.70781 32.2052C8.60579 32.8039 9.03942 33.8959 8.79674 34.9475L7.72336 39.5988C7.5222 40.4705 7.78428 41.3843 8.41685 42.0169L9.98315 43.5831C10.6157 44.2157 11.5295 44.4778 12.4012 44.2766L17.0525 43.2033C18.1041 42.9606 19.1961 43.3942 19.7948 44.2922L22.8298 48.8446C23.311 49.5664 24.1211 50 24.9886 50H27.0114C27.8789 50 28.689 49.5664 29.1702 48.8446L32.2052 44.2922C32.8039 43.3942 33.8959 42.9606 34.9475 43.2033L39.5988 44.2766C40.4705 44.4778 41.3843 44.2157 42.0169 43.5831L43.5831 42.0169C44.2157 41.3843 44.4778 40.4705 44.2766 39.5988L43.2033 34.9475C42.9606 33.8959 43.3942 32.8039 44.2922 32.2052L48.8446 29.1702C49.5664 28.689 50 27.8789 50 27.0114V24.9886C50 24.1211 49.5664 23.311 48.8446 22.8298L44.2922 19.7948C43.3942 19.1961 42.9606 18.1041 43.2033 17.0525L44.2766 12.4012C44.4778 11.5295 44.2157 10.6157 43.5831 9.98315L42.0169 8.41685C41.3843 7.78428 40.4705 7.5222 39.5988 7.72336L34.9475 8.79674C33.8959 9.03942 32.8039 8.60579 32.2052 7.70781L29.1702 3.15537C28.689 2.43356 27.8789 2 27.0114 2H24.9886C24.1211 2 23.311 2.43356 22.8298 3.15537L19.7948 7.70781C19.1961 8.60579 18.1041 9.03942 17.0525 8.79674Z" stroke="#3B82F6" stroke-width="3" stroke-linejoin="round"/>
</g>
<defs>
<clipPath id="clip0_73_28">
<rect width="52" height="52" fill="white"/>
</clipPath>
<clipPath id="clip1_73_28">
<rect width="32.9189" height="47.0563" fill="white" transform="translate(13.0826 -1) rotate(7.42699)"/>
</clipPath>
</defs>
</svg>
