<svg width="38" height="38" viewBox="0 0 38 38" fill="none" xmlns="http://www.w3.org/2000/svg">
<g clip-path="url(#clip0_11550_6)">
<path d="M30.5046 28.7816L26.617 21.9964C25.6059 20.2314 25.8783 18.1824 26.4574 16.6611C24.9604 16.4218 23.1986 15.7162 22.151 14.1749L21.9519 13.8542L18.0643 7.06901C17.2387 5.62853 15.5052 5.05968 14.0695 5.70491L13.7867 5.84962C13.0061 6.30377 12.011 6.06336 11.4828 5.3211L11.3844 5.16606L11.2995 5.00118C10.9257 4.16893 11.2167 3.18041 11.9972 2.72636L12.2944 2.56335C15.3969 0.969373 19.2683 2.15556 21.0789 5.31519L24.9665 12.1004L25.0715 12.2535C25.3631 12.6113 25.9713 12.9731 26.9241 13.124L27.3206 13.1711C28.2359 13.2449 29.0511 13.0688 29.4802 12.8193L29.6404 12.738C30.4463 12.3762 31.4202 12.6961 31.8834 13.5044L31.966 13.6686C32.3152 14.4453 32.087 15.3573 31.4205 15.8449L31.2705 15.9441C30.8416 16.1939 30.2826 16.8172 29.8885 17.6528L29.7306 18.0224C29.3344 19.0591 29.4011 19.8399 29.6316 20.2426L33.5192 27.0278L33.6859 27.3355C35.2685 30.4413 34.319 34.2207 31.492 36.0696L31.2032 36.2475C30.4228 36.7015 29.4277 36.4613 28.8993 35.719L28.8001 35.5625L28.716 35.3991C28.3421 34.5667 28.6334 33.5782 29.4138 33.1242L29.6795 32.9498C30.8672 32.0815 31.275 30.4582 30.6531 29.0741L30.5046 28.7816Z" fill="url(#paint0_radial_11550_6)"/>
<path d="M11.2988 17.2407L10.6696 19.9656C10.6686 19.9695 10.6681 19.9736 10.6679 19.9776C10.6548 20.2316 10.7618 20.4139 10.9351 20.4318L16.0429 20.8076C16.5555 20.8633 16.6831 21.5514 16.2386 21.7919L8.44818 26.3856C8.101 26.5886 7.60941 26.2943 7.64719 25.8651L8.2483 23.1613C8.25978 23.0308 7.81228 22.8012 7.6845 22.7873L2.79002 22.2547C2.27744 22.1989 2.14981 21.5109 2.59439 21.2703L10.3806 16.7244C10.7785 16.4788 11.3366 16.8114 11.2988 17.2407Z" fill="url(#paint1_radial_11550_6)"/>
<path d="M9.10393 28.5615L11.7604 29.3748C11.7643 29.3759 11.768 29.3775 11.7716 29.3793C11.9965 29.4949 12.0996 29.6795 12.0283 29.8396L9.79738 34.4849C9.58902 34.9602 10.1165 35.4155 10.5455 35.1478L18.3887 30.6462C18.7367 30.4448 18.7296 29.8686 18.3418 29.687L15.7176 28.8597C15.5997 28.8044 15.6261 28.2991 15.678 28.1806L17.6675 23.6431C17.8759 23.1679 17.3484 22.7125 16.9194 22.9802L9.11934 27.502C8.70926 27.7265 8.71611 28.3798 9.10393 28.5615Z" fill="url(#paint2_radial_11550_6)"/>
<path d="M19.8165 30.6531C19.9103 30.3107 20.2599 30.1175 20.5973 30.2215L27.3678 32.309L27.3989 32.3195C27.7172 32.4356 27.8998 32.7856 27.809 33.1174C27.7181 33.449 27.3874 33.6407 27.06 33.5578L27.0284 33.549L20.2579 31.4613C19.9204 31.3573 19.7228 30.9955 19.8165 30.6531ZM12.2916 7.782C12.384 7.45478 12.7142 7.26174 13.0447 7.34834C13.3858 7.43776 13.5979 7.79125 13.5186 8.13775L11.9277 15.0898C11.8483 15.4363 11.5074 15.6448 11.1662 15.5554C10.8251 15.466 10.6128 15.1125 10.6921 14.766L12.2833 7.81395L12.2916 7.782Z" fill="gray" fill-opacity="0.66"/>
<path d="M23.9704 17.3551C24.2715 17.1799 24.6605 17.2907 24.8393 17.6027C25.0181 17.9147 24.9189 18.3096 24.6178 18.4849L18.6192 21.9749L18.5907 21.9904C18.294 22.1428 17.9235 22.0295 17.7503 21.7273C17.5715 21.4152 17.6707 21.0201 17.9718 20.8449L23.9704 17.3551Z" fill="gray" fill-opacity="0.66"/>
</g>
<defs>
<radialGradient id="paint0_radial_11550_6" cx="0" cy="0" r="1" gradientUnits="userSpaceOnUse" gradientTransform="translate(41.4864 30.265) rotate(-157.606) scale(48.6408 70.818)">
<stop stop-color="#5445FF"/>
<stop offset="1" stop-color="#636AFF"/>
</radialGradient>
<radialGradient id="paint1_radial_11550_6" cx="0" cy="0" r="1" gradientUnits="userSpaceOnUse" gradientTransform="translate(41.4864 30.265) rotate(-157.606) scale(48.6408 70.818)">
<stop stop-color="#5445FF"/>
<stop offset="1" stop-color="#636AFF"/>
</radialGradient>
<radialGradient id="paint2_radial_11550_6" cx="0" cy="0" r="1" gradientUnits="userSpaceOnUse" gradientTransform="translate(41.4864 30.265) rotate(-157.606) scale(48.6408 70.818)">
<stop stop-color="#5445FF"/>
<stop offset="1" stop-color="#636AFF"/>
</radialGradient>
<clipPath id="clip0_11550_6">
<rect width="38" height="38" fill="gray"/>
</clipPath>
</defs>
</svg>
