<svg width="36" height="36" viewBox="0 0 36 36" fill="none" xmlns="http://www.w3.org/2000/svg">
<path d="M24.4692 16.8898C24.9835 15.0436 23.7438 13.8522 21.965 12.9282L22.9042 10.4565L21.4722 9.87593L20.5575 12.2833C20.1801 12.1328 19.7921 11.981 19.4087 11.8353L20.3309 9.41202L18.8989 8.83145L17.9597 11.3032C17.648 11.1837 17.3408 11.0706 17.0404 10.947L17.0463 10.9421L15.0694 10.1386L14.4626 11.7476C14.4626 11.7476 15.5253 12.1563 15.502 12.1701C16.078 12.4028 16.1347 12.8322 16.0703 13.1614L14.9998 15.9818C15.0405 15.9984 15.0911 16.0219 15.1516 16.0522L14.9983 15.9929L13.4968 19.9388C13.3976 20.1228 13.1755 20.3865 12.7731 20.2215C12.7808 20.245 11.7284 19.7983 11.7284 19.7983L10.7636 21.4789L12.6281 22.2396C12.9746 22.3804 13.3105 22.5199 13.6464 22.6593L12.6924 25.1629L14.1243 25.7435L15.0643 23.2662C15.4553 23.4354 15.832 23.5914 16.2042 23.7412L15.2657 26.2074L16.6976 26.7879L17.6457 24.2892C20.1071 25.1222 22.0383 25.1657 23.1473 22.8737C24.0426 21.0265 23.5123 19.8263 22.2774 18.9282C23.2791 18.8168 24.0937 18.2477 24.4692 16.8898ZM20.4331 21.4282C19.7224 23.2994 16.7612 21.8555 15.7881 21.4586L17.0516 18.1457C18.0201 18.5364 21.1704 19.476 20.4331 21.4282ZM21.5448 16.4805C20.8987 18.1857 18.4357 16.953 17.625 16.6279L18.7683 13.6201C19.5782 13.9507 22.2162 14.7054 21.5448 16.4805Z" fill="black"/>
<path d="M12.9671 8.32317L10.3507 7.71939C9.86037 7.60624 9.34634 7.75366 8.99052 8.10948L8.10948 8.99052C7.75366 9.34634 7.60624 9.86037 7.71939 10.3507L8.32317 12.9671C8.45967 13.5586 8.21576 14.1728 7.71064 14.5096L5.1499 16.2167C4.74388 16.4874 4.5 16.9431 4.5 17.4311V18.5689C4.5 19.0569 4.74388 19.5126 5.1499 19.7833L7.71064 21.4904C8.21576 21.8272 8.45967 22.4414 8.32317 23.0329L7.71939 25.6493C7.60624 26.1396 7.75366 26.6537 8.10948 27.0095L8.99052 27.8905C9.34634 28.2463 9.86037 28.3938 10.3507 28.2806L12.9671 27.6768C13.5586 27.5403 14.1728 27.7842 14.5096 28.2894L16.2167 30.8501C16.4874 31.2561 16.9431 31.5 17.4311 31.5H18.5689C19.0569 31.5 19.5126 31.2561 19.7833 30.8501L21.4904 28.2894C21.8272 27.7842 22.4414 27.5403 23.0329 27.6768L25.6493 28.2806C26.1396 28.3938 26.6537 28.2463 27.0095 27.8905L27.8905 27.0095C28.2463 26.6537 28.3938 26.1396 28.2806 25.6493L27.6768 23.0329C27.5403 22.4414 27.7842 21.8272 28.2894 21.4904L30.8501 19.7833C31.2561 19.5126 31.5 19.0569 31.5 18.5689V17.4311C31.5 16.9431 31.2561 16.4874 30.8501 16.2167L28.2894 14.5096C27.7842 14.1728 27.5403 13.5586 27.6768 12.9671L28.2806 10.3507C28.3938 9.86037 28.2463 9.34634 27.8905 8.99052L27.0095 8.10948C26.6537 7.75366 26.1396 7.60624 25.6493 7.71939L23.0329 8.32317C22.4414 8.45967 21.8272 8.21576 21.4904 7.71064L19.7833 5.1499C19.5126 4.74388 19.0569 4.5 18.5689 4.5H17.4311C16.9431 4.5 16.4874 4.74388 16.2167 5.1499L14.5096 7.71064C14.1728 8.21576 13.5586 8.45967 12.9671 8.32317Z" stroke="black" stroke-width="2" stroke-linejoin="round"/>
</svg>
